<?xml version="1.0" standalone="no"?>
<!DOCTYPE svg PUBLIC "-//W3C//DTD SVG 20010904//EN"
 "http://www.w3.org/TR/2001/REC-SVG-20010904/DTD/svg10.dtd">
<svg version="1.0" xmlns="http://www.w3.org/2000/svg"
 width="260.000000pt" height="260.000000pt" viewBox="0 0 260.000000 260.000000"
 preserveAspectRatio="xMidYMid meet">
<metadata>
Created by potrace 1.11, written by Peter Selinger 2001-2013
</metadata>
<g transform="translate(0.000000,260.000000) scale(0.100000,-0.100000)"
fill="#000000" stroke="none">
<path d="M158 2383 c6 -2 18 -2 25 0 6 3 1 5 -13 5 -14 0 -19 -2 -12 -5z"/>
<path d="M1684 2286 c-23 -12 -49 -27 -58 -35 -31 -26 -56 -89 -62 -153 -3
-35 -13 -79 -22 -98 -30 -66 -15 -166 29 -198 14 -10 16 -18 8 -44 -14 -50
-11 -94 9 -130 10 -18 19 -49 20 -68 3 -45 25 -67 73 -75 29 -5 39 -12 39 -25
0 -16 -6 -18 -34 -13 -26 4 -38 0 -54 -17 -11 -12 -18 -28 -16 -35 7 -16 -64
-75 -90 -75 -19 0 -19 0 1 23 28 31 54 92 58 135 2 21 6 45 10 54 13 31 -38
94 -94 118 -36 15 -106 141 -89 158 14 14 -7 85 -31 106 -9 7 -39 16 -67 20
-41 5 -53 3 -58 -9 -7 -20 -46 -20 -46 0 0 18 -14 19 -41 5 -15 -9 -21 -7 -25
5 -8 21 -19 19 -30 -6 -8 -17 -21 -22 -64 -25 -59 -5 -90 -25 -90 -59 0 -13
-6 -28 -14 -34 -8 -7 -21 -31 -29 -55 -12 -36 -13 -48 -1 -74 7 -18 17 -32 21
-32 15 0 2 -98 -16 -117 -34 -37 -51 -68 -51 -95 0 -16 5 -28 10 -28 6 0 10
-17 10 -39 0 -22 6 -44 15 -51 8 -7 12 -17 9 -22 -4 -6 -10 -5 -15 3 -7 11 -9
10 -9 -3 0 -29 -24 -21 -76 27 -27 25 -56 45 -66 45 -9 0 -27 -13 -40 -29 -13
-16 -33 -34 -46 -40 -53 -27 -105 -156 -72 -176 6 -3 10 -16 10 -28 1 -68 124
-110 181 -61 13 12 21 11 54 -6 58 -30 65 -40 24 -40 -48 0 -156 -27 -198 -50
-28 -14 -64 -20 -156 -24 -209 -8 -352 -70 -426 -185 -35 -54 -37 -98 -7 -160
23 -49 43 -70 95 -102 18 -12 31 -24 28 -29 -3 -4 1 -7 8 -7 6 1 51 -11 99
-26 48 -16 119 -31 157 -34 62 -5 70 -8 75 -28 8 -31 78 -70 167 -94 97 -26
168 -34 319 -35 201 -3 318 15 430 66 75 33 136 36 280 11 116 -21 347 -13
447 14 109 31 168 74 179 133 6 25 11 29 58 35 117 15 181 76 139 134 -23 31
-93 59 -156 63 -44 3 -45 4 -40 34 7 43 -8 67 -62 98 -72 43 -184 67 -325 72
-69 2 -143 9 -165 15 -22 6 -73 17 -113 24 -40 8 -76 16 -81 19 -4 3 -6 22 -4
42 2 21 -1 40 -7 44 -7 4 3 12 22 20 18 7 46 25 61 39 22 20 30 23 36 12 10
-16 31 -6 31 14 0 7 13 18 29 23 44 15 63 53 69 132 6 82 -9 112 -63 130 -32
11 -35 15 -35 50 0 43 18 60 63 60 39 0 77 43 77 86 0 31 2 35 15 24 12 -10
15 -10 15 1 0 7 9 22 20 34 22 24 44 153 29 169 -5 6 1 14 13 20 40 21 63 83
62 171 -1 124 -24 162 -107 180 -16 3 -31 15 -36 28 -13 32 -79 75 -131 85
-37 7 -53 5 -86 -12z"/>
<path d="M2329 363 c-13 -16 -12 -17 4 -4 16 13 21 21 13 21 -2 0 -10 -8 -17
-17z"/>
</g>
</svg>
